HIERARCHY
ROOT Hips
{
  OFFSET 42.262 36.666 -259.355
  CHANNELS 6 Xposition Yposition Zposition Zrotation Xrotation Yrotation
  JOINT LeftUpLeg
  {
    OFFSET 5.591 -5.533 2.060
    CHANNELS 6 Xposition Yposition Zposition Zrotation Xrotation Yrotation
    JOINT LeftLeg
    {
      OFFSET 0.000 -45.911 0.000
      CHANNELS 6 Xposition Yposition Zposition Zrotation Xrotation Yrotation
      JOINT LeftFoot
      {
        OFFSET 0.000 -44.042 -0.000
        CHANNELS 6 Xposition Yposition Zposition Zrotation Xrotation Yrotation
        End Site
        {
          OFFSET -0.000 -7.847 4.530
        }
      }
    }
  }
  JOINT RightUpLeg
  {
    OFFSET -4.959 -5.345 5.055
    CHANNELS 6 Xposition Yposition Zposition Zrotation Xrotation Yrotation
    JOINT RightLeg
    {
      OFFSET 0.000 -48.417 0.000
      CHANNELS 6 Xposition Yposition Zposition Zrotation Xrotation Yrotation
      JOINT RightFoot
      {
        OFFSET -0.000 -42.547 -0.000
        CHANNELS 6 Xposition Yposition Zposition Zrotation Xrotation Yrotation
        End Site
        {
          OFFSET -0.000 -7.433 4.291
        }
      }
    }
  }
  JOINT Spine
  {
    OFFSET 0.000 5.424 -5.424
    CHANNELS 6 Xposition Yposition Zposition Zrotation Xrotation Yrotation
    JOINT LeftShoulder
    {
      OFFSET -0.000 25.762 0.000
      CHANNELS 6 Xposition Yposition Zposition Zrotation Xrotation Yrotation
      JOINT LeftArm
      {
        OFFSET 15.162 -0.000 -0.000
        CHANNELS 6 Xposition Yposition Zposition Zrotation Xrotation Yrotation
        JOINT LeftForeArm
        {
          OFFSET 24.727 0.000 0.000
          CHANNELS 6 Xposition Yposition Zposition Zrotation Xrotation Yrotation
          JOINT LeftHand
          {
            OFFSET 24.361 -0.000 -0.000
            CHANNELS 6 Xposition Yposition Zposition Zrotation Xrotation Yrotation
            JOINT LeftHandThumb1
            {
            OFFSET 4.970 -0.620 3.390
            CHANNELS 6 Xposition Yposition Zposition Zrotation Xrotation Yrotation
              JOINT LeftHandThumb2
              {
              OFFSET 2.150 -0.000 0.000
              CHANNELS 6 Xposition Yposition Zposition Zrotation Xrotation Yrotation
                JOINT LeftHandThumb3
                {
                OFFSET 2.200 -0.000 0.000
                CHANNELS 6 Xposition Yposition Zposition Zrotation Xrotation Yrotation
                  JOINT LeftHandThumb4
                  {
                  OFFSET 1.700 -0.000 0.000
                  CHANNELS 6 Xposition Yposition Zposition Zrotation Xrotation Yrotation
                  }
                }
              }
            }
            JOINT LeftHandIndex1
            {
            OFFSET 8.730 0.680 2.070
            CHANNELS 6 Xposition Yposition Zposition Zrotation Xrotation Yrotation
              JOINT LeftHandIndex2
              {
              OFFSET 2.670 -0.000 0.000
              CHANNELS 6 Xposition Yposition Zposition Zrotation Xrotation Yrotation
                JOINT LeftHandIndex3
                {
                OFFSET 2.130 -0.000 0.000
                CHANNELS 6 Xposition Yposition Zposition Zrotation Xrotation Yrotation
                  JOINT LeftHandIndex4
                  {
                  OFFSET 1.800 -0.000 0.000
                  CHANNELS 6 Xposition Yposition Zposition Zrotation Xrotation Yrotation
                  }
                }
              }
            }
            JOINT LeftHandMiddle1
            {
            OFFSET 9.220 0.670 0.550
            CHANNELS 6 Xposition Yposition Zposition Zrotation Xrotation Yrotation
              JOINT LeftHandMiddle2
              {
              OFFSET 2.660 -0.000 0.000
              CHANNELS 6 Xposition Yposition Zposition Zrotation Xrotation Yrotation
                JOINT LeftHandMiddle3
                {
                OFFSET 2.280 -0.000 0.000
                CHANNELS 6 Xposition Yposition Zposition Zrotation Xrotation Yrotation
                  JOINT LeftHandMiddle4
                  {
                  OFFSET 1.500 -0.000 0.000
                  CHANNELS 6 Xposition Yposition Zposition Zrotation Xrotation Yrotation
                  }
                }
              }
            }
            JOINT LeftHandRing1
            {
            OFFSET 9.250 0.670 -1.130
            CHANNELS 6 Xposition Yposition Zposition Zrotation Xrotation Yrotation
              JOINT LeftHandRing2
              {
              OFFSET 2.470 -0.000 0.000
              CHANNELS 6 Xposition Yposition Zposition Zrotation Xrotation Yrotation
                JOINT LeftHandRing3
                {
                OFFSET 2.210 -0.000 0.000
                CHANNELS 6 Xposition Yposition Zposition Zrotation Xrotation Yrotation
                  JOINT LeftHandRing4
                  {
                  OFFSET 1.800 -0.000 0.000
                  CHANNELS 6 Xposition Yposition Zposition Zrotation Xrotation Yrotation
                  }
                }
              }
            }
            JOINT LeftHandPinky1
            {
            OFFSET 9.350 0.660 -2.720
            CHANNELS 6 Xposition Yposition Zposition Zrotation Xrotation Yrotation
              JOINT LeftHandPinky2
              {
              OFFSET 1.630 -0.000 0.000
              CHANNELS 6 Xposition Yposition Zposition Zrotation Xrotation Yrotation
                JOINT LeftHandPinky3
                {
                OFFSET 1.710 -0.000 0.000
                CHANNELS 6 Xposition Yposition Zposition Zrotation Xrotation Yrotation
                  JOINT LeftHandPinky4
                  {
                  OFFSET 1.800 -0.000 0.000
                  CHANNELS 6 Xposition Yposition Zposition Zrotation Xrotation Yrotation
                  }
                }
              }
            }
          }
        }
      }
    }
    JOINT RightShoulder
    {
      OFFSET -0.000 25.762 0.000
      CHANNELS 6 Xposition Yposition Zposition Zrotation Xrotation Yrotation
      JOINT RightArm
      {
        OFFSET -17.956 0.000 -0.000
        CHANNELS 6 Xposition Yposition Zposition Zrotation Xrotation Yrotation
        JOINT RightForeArm
        {
          OFFSET -24.737 0.000 0.000
          CHANNELS 6 Xposition Yposition Zposition Zrotation Xrotation Yrotation
          JOINT RightHand
          {
            OFFSET -22.504 0.000 -0.000
            CHANNELS 6 Xposition Yposition Zposition Zrotation Xrotation Yrotation
            JOINT RightHandThumb1
            {
            OFFSET -4.970 -0.620 3.390
            CHANNELS 6 Xposition Yposition Zposition Zrotation Xrotation Yrotation
              JOINT RightHandThumb2
              {
              OFFSET -2.150 0.000 0.000
              CHANNELS 6 Xposition Yposition Zposition Zrotation Xrotation Yrotation
                JOINT RightHandThumb3
                {
                OFFSET -2.200 0.000 0.000
                CHANNELS 6 Xposition Yposition Zposition Zrotation Xrotation Yrotation
                  JOINT RightHandThumb4
                  {
                  OFFSET -1.700 0.000 0.000
                  CHANNELS 6 Xposition Yposition Zposition Zrotation Xrotation Yrotation
                  }
                }
              }
            }
            JOINT RightHandIndex1
            {
            OFFSET -8.730 0.680 2.070
            CHANNELS 6 Xposition Yposition Zposition Zrotation Xrotation Yrotation
              JOINT RightHandIndex2
              {
              OFFSET -2.670 0.000 0.000
              CHANNELS 6 Xposition Yposition Zposition Zrotation Xrotation Yrotation
                JOINT RightHandIndex3
                {
                OFFSET -2.130 0.000 0.000
                CHANNELS 6 Xposition Yposition Zposition Zrotation Xrotation Yrotation
                  JOINT RightHandIndex4
                  {
                  OFFSET -1.800 0.000 0.000
                  CHANNELS 6 Xposition Yposition Zposition Zrotation Xrotation Yrotation
                  }
                }
              }
            }
            JOINT RightHandMiddle1
            {
            OFFSET -9.220 0.670 0.550
            CHANNELS 6 Xposition Yposition Zposition Zrotation Xrotation Yrotation
              JOINT RightHandMiddle2
              {
              OFFSET -2.660 0.000 0.000
              CHANNELS 6 Xposition Yposition Zposition Zrotation Xrotation Yrotation
                JOINT RightHandMiddle3
                {
                OFFSET -2.280 0.000 0.000
                CHANNELS 6 Xposition Yposition Zposition Zrotation Xrotation Yrotation
                  JOINT RightHandMiddle4
                  {
                  OFFSET -1.500 0.000 0.000
                  CHANNELS 6 Xposition Yposition Zposition Zrotation Xrotation Yrotation
                  }
                }
              }
            }
            JOINT RightHandRing1
            {
            OFFSET -9.250 0.670 -1.130
            CHANNELS 6 Xposition Yposition Zposition Zrotation Xrotation Yrotation
              JOINT RightHandRing2
              {
              OFFSET -2.470 0.000 0.000
              CHANNELS 6 Xposition Yposition Zposition Zrotation Xrotation Yrotation
                JOINT RightHandRing3
                {
                OFFSET -2.210 0.000 0.000
                CHANNELS 6 Xposition Yposition Zposition Zrotation Xrotation Yrotation
                  JOINT RightHandRing4
                  {
                  OFFSET -1.800 0.000 0.000
                  CHANNELS 6 Xposition Yposition Zposition Zrotation Xrotation Yrotation
                  }
                }
              }
            }
            JOINT RightHandPinky1
            {
            OFFSET -9.350 0.660 -2.720
            CHANNELS 6 Xposition Yposition Zposition Zrotation Xrotation Yrotation
              JOINT RightHandPinky2
              {
              OFFSET -1.630 0.000 0.000
              CHANNELS 6 Xposition Yposition Zposition Zrotation Xrotation Yrotation
                JOINT RightHandPinky3
                {
                OFFSET -1.710 0.000 0.000
                CHANNELS 6 Xposition Yposition Zposition Zrotation Xrotation Yrotation
                  JOINT RightHandPinky4
                  {
                  OFFSET -1.800 0.000 0.000
                  CHANNELS 6 Xposition Yposition Zposition Zrotation Xrotation Yrotation
                  }
                }
              }
            }
          }
        }
      }
    }
    JOINT Neck
    {
      OFFSET -0.000 25.762 0.000
      CHANNELS 6 Xposition Yposition Zposition Zrotation Xrotation Yrotation
      JOINT Head
      {
        OFFSET -0.000 29.850 -0.000
        CHANNELS 6 Xposition Yposition Zposition Zrotation Xrotation Yrotation
        End Site
        {
          OFFSET -0.000 0.119 -0.000
        }
      }
    }
  }
}
MOTION
Frames:	4
Frame Time:	0.0333333
25.8012 32.721 -261.502 25.0176 9.82229 -66.9706 2.78769 -5.62539 -0.0681758 -138.263 -60.0458 173.218 2.38419e-05 -41.2731 0 -101.255 51.5099 180 4.47035e-06 -32.2626 0 -67.5287 40.9291 13.1423 -1.66659 -3.61203 8.41953 -12.7152 -27.4098 59.6576 2.98023e-06 -47.7709 2.38419e-05 22.9207 -6.6641 1.07448e-06 1.49012e-06 -39.1151 -7.15256e-05 -86.4631 38.4758 29.3618 2.38419e-05 4.75447 -4.75448 3.53017 -39.8844 1.74519 -2.38419e-05 25.7619 -1.19209e-05 10.8068 1.36604e-05 1.34607 14.7651 0 1.19209e-05 -83.6093 24.1859 -4.50071 24.1242 -3.57628e-05 2.98023e-06 3.81397e-05 -1.40126e-05 -112.926 22.933 4.76837e-05 1.19209e-05 19.698 0.029771 -13.6984 0.0062 0.0497 0.0339 -25.1943 0 0 0 0.0215 0 0 -25.1943 0 0 0.022 0 0 -25.1943 0 0 0.017 0 0 0 0 -0.0068 0.0873 0.0207 -25.1943 0 0 0 0.0267 0 -44.7899 0 0 0 0.0213 0 -50.3886 0 0 0 0.018 0 0 0 0 -0.0067 0.0922 0.0055 -25.1943 0 0 0 0.0266 0 -44.7899 0 0 0 0.0228 0 -50.3886 0 0 0 0.015 0 0 0 0 -0.0067 0.0925 -0.0113 -25.1943 0 0 0 0.0247 0 -44.7899 0 0 0 0.0221 0 -50.3886 0 0 0 0.018 0 0 0 0 -0.0066 0.0935 -0.0272 -25.1943 0 0 0 0.0163 0 -44.7899 0 0 0 0.0171 0 -50.3886 0 0 0 0.018 0 0 0 0 -2.38419e-05 25.7619 -1.19209e-05 -35.0715 1.19528e-05 -1.81697 -10.9396 -1.49012e-05 1.19209e-05 -21.4276 49.2649 125.683 -31.242 -2.38419e-05 2.38419e-05 -7.33628e-06 1.02453e-05 27.8171 -31.8446 1.19209e-05 -1.19209e-05 10.3835 0.244569 -22.2629 -0.0062 0.0497 0.0339 45 0 0 0 0.0215 0 0 -45 0 0 0.022 0 0 -45 0 0 0.017 0 0 0 0 0.0068 0.0873 0.0207 45 0 0 0 0.0267 0 80 0 0 0 0.0213 0 90 0 0 0 0.018 0 0 0 0 0.0067 0.0922 0.0055 45 0 0 0 0.0266 0 80 0 0 0 0.0228 0 90 0 0 0 0.015 0 0 0 0 0.0067 0.0925 -0.0113 45 0 0 0 0.0247 0 80 0 0 0 0.0221 0 90 0 0 0 0.018 0 0 0 0 0.0066 0.0935 -0.0272 45 0 0 0 0.0163 0 80 0 0 0 0.0171 0 90 0 0 0 0.018 0 0 0 0 -2.38419e-05 25.7619 -1.19209e-05 6.493 13.704 -1.54448 9.53674e-05 32.5203 2.38419e-05 8.53774e-06 -1.28066e-05 -3.41509e-06 
25.5769 35.5019 -261.349 23.565 9.47514 -66.2536 4.65045 -6.20863 1.5651 -118.471 -64.8747 -130.359 -2.38419e-05 -40.7431 5.96046e-06 -116.211 88.5162 179.999 -2.38419e-05 -30.8988 -7.15256e-05 -59.7842 17.8451 -17.3782 -3.16198 -5.38795 8.63125 -10.5457 -25.0871 38.0375 -5.96046e-06 -48.9559 0 21.0616 1.64419 -8.54125e-06 -1.78814e-05 -38.5616 -7.15256e-05 -65.5309 15.8392 -9.88393 -4.76837e-05 4.21889 -4.21888 3.60403 -39.1077 1.85123 4.76837e-05 25.7619 1.19209e-05 5.80643 4.69576e-06 2.87804 14.4912 1.19209e-05 -2.38419e-05 -78.8517 24.5912 -2.20626 23.9721 -1.19209e-05 1.49012e-05 -1.8419e-06 -8.8769e-06 -113.444 22.3949 -3.57628e-05 0 18.9132 0.0989519 -11.679 0.0062 0.0497 0.0339 -31.6168 0 0 0 0.0215 0 0 -31.6168 0 0 0.022 0 0 -31.6168 0 0 0.017 0 0 0 0 -0.0068 0.0873 0.0207 -31.6168 0 0 0 0.0267 0 -56.2077 0 0 0 0.0213 0 -63.2336 0 0 0 0.018 0 0 0 0 -0.0067 0.0922 0.0055 -31.6168 0 0 0 0.0266 0 -56.2077 0 0 0 0.0228 0 -63.2336 0 0 0 0.015 0 0 0 0 -0.0067 0.0925 -0.0113 -31.6168 0 0 0 0.0247 0 -56.2077 0 0 0 0.0221 0 -63.2336 0 0 0 0.018 0 0 0 0 -0.0066 0.0935 -0.0272 -31.6168 0 0 0 0.0163 0 -56.2077 0 0 0 0.0171 0 -63.2336 0 0 0 0.018 0 0 0 0 4.76837e-05 25.7619 1.19209e-05 -25.1441 -2.13443e-06 -4.08429 -10.2157 3.72529e-06 -3.57628e-05 -36.4787 47.1276 131.504 -31.2445 1.19209e-05 -4.76837e-05 -2.07075e-06 -3.41509e-06 27.5387 -31.9254 0 -2.38419e-05 10.3653 0.217687 -21.0038 -0.0062 0.0497 0.0339 45 0 0 0 0.0215 0 0 -45 0 0 0.022 0 0 -45 0 0 0.017 0 0 0 0 0.0068 0.0873 0.0207 45 0 0 0 0.0267 0 80 0 0 0 0.0213 0 90 0 0 0 0.018 0 0 0 0 0.0067 0.0922 0.0055 45 0 0 0 0.0266 0 80 0 0 0 0.0228 0 90 0 0 0 0.015 0 0 0 0 0.0067 0.0925 -0.0113 45 0 0 0 0.0247 0 80 0 0 0 0.0221 0 90 0 0 0 0.018 0 0 0 0 0.0066 0.0935 -0.0272 45 0 0 0 0.0163 0 80 0 0 0 0.0171 0 90 0 0 0 0.018 0 0 0 0 4.76837e-05 25.7619 1.19209e-05 6.94896 14.6139 -1.76133 -2.38419e-05 30.7083 4.76837e-05 8.53774e-06 -9.8184e-06 -1.70755e-06 
26.2523 37.8302 -261.748 25.1043 10.6541 -65.8558 5.57871 -6.24388 2.22026 -105.758 -68.3695 -124.266 0 -40.0646 1.78814e-05 -128.369 80.6817 180 -5.96046e-05 -32.1223 0 -62.2787 -6.68264 -37.7161 -4.47199 -5.99205 8.3805 -8.7759 -27.4982 26.1361 1.19209e-05 -50.8151 2.38419e-05 18.8209 5.80624 0 0 -37.9178 -4.76837e-05 -55.5345 2.06989 -24.2768 4.76837e-05 4.38469 -4.38468 3.33404 -39.6803 1.64282 -2.38419e-05 25.7619 0 -2.5438 1.32335e-05 4.89925 14.3195 -1.19209e-05 0 -68.9692 25.1497 -1.94503 23.5391 0 -5.96046e-06 1.65806e-05 -3.46045e-06 -113.577 22.2079 1.19209e-05 2.38419e-05 18.4147 0.136258 -10.0979 0.0062 0.0497 0.0339 -36.5582 0 0 0 0.0215 0 0 -36.5582 0 0 0.022 0 0 -36.5582 0 0 0.017 0 0 0 0 -0.0068 0.0873 0.0207 -36.5582 0 0 0 0.0267 0 -64.9923 0 0 0 0.0213 0 -73.1164 0 0 0 0.018 0 0 0 0 -0.0067 0.0922 0.0055 -36.5582 0 0 0 0.0266 0 -64.9923 0 0 0 0.0228 0 -73.1164 0 0 0 0.015 0 0 0 0 -0.0067 0.0925 -0.0113 -36.5582 0 0 0 0.0247 0 -64.9923 0 0 0 0.0221 0 -73.1164 0 0 0 0.018 0 0 0 0 -0.0066 0.0935 -0.0272 -36.5582 0 0 0 0.0163 0 -64.9923 0 0 0 0.0171 0 -73.1164 0 0 0 0.018 0 0 0 0 -2.38419e-05 25.7619 0 -15.5397 1.32335e-05 -7.16909 -9.79948 -1.19209e-05 -1.19209e-05 45.1263 55.8509 52.1984 -29.3647 -2.98023e-06 2.38419e-05 3.99276e-06 4.69576e-06 28.8496 -22.1984 0 -2.38419e-05 -0.47293 1.21139 -19.21 -0.0062 0.0497 0.0339 45 0 0 0 0.0215 0 0 -45 0 0 0.022 0 0 -45 0 0 0.017 0 0 0 0 0.0068 0.0873 0.0207 45 0 0 0 0.0267 0 80 0 0 0 0.0213 0 90 0 0 0 0.018 0 0 0 0 0.0067 0.0922 0.0055 45 0 0 0 0.0266 0 80 0 0 0 0.0228 0 90 0 0 0 0.015 0 0 0 0 0.0067 0.0925 -0.0113 45 0 0 0 0.0247 0 80 0 0 0 0.0221 0 90 0 0 0 0.018 0 0 0 0 0.0066 0.0935 -0.0272 45 0 0 0 0.0163 0 80 0 0 0 0.0171 0 90 0 0 0 0.018 0 0 0 0 -2.38419e-05 25.7619 0 7.20164 13.7273 -1.71751 4.76837e-05 30.6271 -1.19209e-05 1.02453e-05 -8.53774e-06 -1.70755e-06 
26.8155 39.5396 -262.101 25.5187 12.9386 -63.9582 6.30744 -6.00179 2.82476 -87.0632 -70.2744 -105.486 2.38419e-05 -39.4837 -5.96046e-06 -137.111 83.057 180 0 -33.5422 0 -61.9439 -24.184 -49.6022 -5.42536 -6.48269 7.91936 -6.90542 -28.8403 17.2688 -3.57628e-05 -52.3117 -2.38419e-05 16.9872 7.10349 -3.44151e-06 2.38419e-05 -37.3977 -2.38419e-05 -48.5605 -3.54972 -28.2134 -4.76837e-05 4.50277 -4.50276 3.38512 -40.1003 1.57226 4.76837e-05 25.7619 1.19209e-05 -7.40096 1.53679e-05 4.3554 14.4067 5.96046e-06 1.19209e-05 -63.0054 25.0655 -1.4553 23.4299 -2.38419e-05 -1.19209e-05 -2.8034e-05 -3.43979e-06 -113.428 22.007 0 2.38419e-05 18.0685 0.154807 -8.83964 0.0062 0.0497 0.0339 -40.3183 0 0 0 0.0215 0 0 -40.3183 0 0 0.022 0 0 -40.3183 0 0 0.017 0 0 0 0 -0.0068 0.0873 0.0207 -40.3183 0 0 0 0.0267 0 -71.677 0 0 0 0.0213 0 -80.6366 0 0 0 0.018 0 0 0 0 -0.0067 0.0922 0.0055 -40.3183 0 0 0 0.0266 0 -71.677 0 0 0 0.0228 0 -80.6366 0 0 0 0.015 0 0 0 0 -0.0067 0.0925 -0.0113 -40.3183 0 0 0 0.0247 0 -71.677 0 0 0 0.0221 0 -80.6366 0 0 0 0.018 0 0 0 0 -0.0066 0.0935 -0.0272 -40.3183 0 0 0 0.0163 0 -71.677 0 0 0 0.0171 0 -80.6366 0 0 0 0.018 0 0 0 0 4.76837e-05 25.7619 1.19209e-05 -12.6513 4.16215e-06 -5.63233 -11.1478 -1.19209e-05 -2.38419e-05 73.4961 31.9244 24.6528 -28.3171 2.38419e-05 2.38419e-05 -9.73677e-06 5.12264e-06 44.167 -19.751 0 -1.19209e-05 -6.49322 1.40808 -15.9199 -0.0062 0.0497 0.0339 45 0 0 0 0.0215 0 0 -45 0 0 0.022 0 0 -45 0 0 0.017 0 0 0 0 0.0068 0.0873 0.0207 45 0 0 0 0.0267 0 80 0 0 0 0.0213 0 90 0 0 0 0.018 0 0 0 0 0.0067 0.0922 0.0055 45 0 0 0 0.0266 0 80 0 0 0 0.0228 0 90 0 0 0 0.015 0 0 0 0 0.0067 0.0925 -0.0113 45 0 0 0 0.0247 0 80 0 0 0 0.0221 0 90 0 0 0 0.018 0 0 0 0 0.0066 0.0935 -0.0272 45 0 0 0 0.0163 0 80 0 0 0 0.0171 0 90 0 0 0 0.018 0 0 0 0 4.76837e-05 25.7619 1.19209e-05 7.31879 13.7105 -1.74362 -7.15256e-05 29.4235 0 8.53774e-06 -1.23797e-05 -1.70755e-06 
